{
	"asset":{
		"generator":"Khronos glTF Blender I/O v3.5.30",
		"version":"2.0"
	},
	"extensionsUsed":[
		"KHR_materials_specular",
		"KHR_materials_ior"
	],
	"scene":0,
	"scenes":[
		{
			"name":"Scene",
			"nodes":[
				4
			]
		}
	],
	"nodes":[
		{
			"mesh":0,
			"name":"eyes",
			"rotation":[
				0.6803146600723267,
				-0.0017941107507795095,
				-0.0010248341131955385,
				0.732917308807373
			],
			"scale":[
				0.047644343227148056,
				0.04516243189573288,
				0.04516243934631348
			],
			"translation":[
				-0.05635662004351616,
				0.9060801863670349,
				0.13479633629322052
			]
		},
		{
			"mesh":1,
			"name":"left tooth",
			"rotation":[
				0.10172257572412491,
				0.006340024992823601,
				0.002819392364472151,
				0.9947887063026428
			],
			"scale":[
				0.0531337596476078,
				0.05036589875817299,
				0.05036589503288269
			],
			"translation":[
				0.09632395952939987,
				0.5983568429946899,
				0.377304345369339
			]
		},
		{
			"mesh":2,
			"name":"right tooth",
			"rotation":[
				0.11794402450323105,
				-0.00030900436104275286,
				-0.0035189385525882244,
				0.9930139780044556
			],
			"scale":[
				0.0531337670981884,
				0.05036589875817299,
				0.05036589130759239
			],
			"translation":[
				-0.10771091282367706,
				0.5983961224555969,
				0.3779190480709076
			]
		},
		{
			"mesh":3,
			"name":"tongue"
		},
		{
			"children":[
				0,
				1,
				2,
				3
			],
			"mesh":4,
			"name":"dog",
			"scale":[
				0.9479076862335205,
				1,
				1
			]
		}
	],
	"animations":[
		{
			"channels":[
				{
					"sampler":0,
					"target":{
						"node":4,
						"path":"translation"
					}
				},
				{
					"sampler":1,
					"target":{
						"node":4,
						"path":"rotation"
					}
				},
				{
					"sampler":2,
					"target":{
						"node":4,
						"path":"scale"
					}
				}
			],
			"name":"dog",
			"samplers":[
				{
					"input":14,
					"interpolation":"LINEAR",
					"output":15
				},
				{
					"input":14,
					"interpolation":"LINEAR",
					"output":16
				},
				{
					"input":14,
					"interpolation":"LINEAR",
					"output":17
				}
			]
		},
		{
			"channels":[
				{
					"sampler":0,
					"target":{
						"node":0,
						"path":"translation"
					}
				},
				{
					"sampler":1,
					"target":{
						"node":0,
						"path":"rotation"
					}
				},
				{
					"sampler":2,
					"target":{
						"node":0,
						"path":"scale"
					}
				}
			],
			"name":"eyes",
			"samplers":[
				{
					"input":14,
					"interpolation":"LINEAR",
					"output":18
				},
				{
					"input":14,
					"interpolation":"LINEAR",
					"output":19
				},
				{
					"input":14,
					"interpolation":"LINEAR",
					"output":20
				}
			]
		},
		{
			"channels":[
				{
					"sampler":0,
					"target":{
						"node":1,
						"path":"translation"
					}
				},
				{
					"sampler":1,
					"target":{
						"node":1,
						"path":"rotation"
					}
				},
				{
					"sampler":2,
					"target":{
						"node":1,
						"path":"scale"
					}
				}
			],
			"name":"left tooth",
			"samplers":[
				{
					"input":14,
					"interpolation":"LINEAR",
					"output":21
				},
				{
					"input":14,
					"interpolation":"LINEAR",
					"output":22
				},
				{
					"input":14,
					"interpolation":"LINEAR",
					"output":23
				}
			]
		},
		{
			"channels":[
				{
					"sampler":0,
					"target":{
						"node":2,
						"path":"translation"
					}
				},
				{
					"sampler":1,
					"target":{
						"node":2,
						"path":"rotation"
					}
				},
				{
					"sampler":2,
					"target":{
						"node":2,
						"path":"scale"
					}
				}
			],
			"name":"right tooth",
			"samplers":[
				{
					"input":14,
					"interpolation":"LINEAR",
					"output":24
				},
				{
					"input":14,
					"interpolation":"LINEAR",
					"output":25
				},
				{
					"input":14,
					"interpolation":"LINEAR",
					"output":26
				}
			]
		},
		{
			"channels":[
				{
					"sampler":0,
					"target":{
						"node":3,
						"path":"translation"
					}
				},
				{
					"sampler":1,
					"target":{
						"node":3,
						"path":"rotation"
					}
				},
				{
					"sampler":2,
					"target":{
						"node":3,
						"path":"scale"
					}
				}
			],
			"name":"tongue",
			"samplers":[
				{
					"input":14,
					"interpolation":"LINEAR",
					"output":27
				},
				{
					"input":14,
					"interpolation":"LINEAR",
					"output":28
				},
				{
					"input":14,
					"interpolation":"LINEAR",
					"output":29
				}
			]
		}
	],
	"materials":[
		{
			"doubleSided":true,
			"extensions":{
				"KHR_materials_specular":{
					"specularColorFactor":[
						2.371357614441398,
						2.371357614441398,
						2.371357614441398
					]
				},
				"KHR_materials_ior":{
					"ior":1.4500000476837158
				}
			},
			"name":"shiny",
			"pbrMetallicRoughness":{
				"baseColorFactor":[
					0.8000000715255737,
					0.6732879877090454,
					0.5293079614639282,
					1
				],
				"metallicFactor":0.9454545378684998,
				"roughnessFactor":0.31136399507522583
			}
		},
		{
			"doubleSided":true,
			"extensions":{
				"KHR_materials_specular":{
					"specularColorFactor":[
						2.371357614441398,
						2.371357614441398,
						2.371357614441398
					]
				},
				"KHR_materials_ior":{
					"ior":1.4500000476837158
				}
			},
			"name":"shiny white",
			"pbrMetallicRoughness":{
				"baseColorFactor":[
					1,
					0.8408000469207764,
					0.660029947757721,
					1
				],
				"metallicFactor":0.9454545378684998,
				"roughnessFactor":0.31136399507522583
			}
		},
		{
			"doubleSided":true,
			"extensions":{
				"KHR_materials_specular":{
					"specularColorFactor":[
						2.371357614441398,
						2.371357614441398,
						2.371357614441398
					]
				},
				"KHR_materials_ior":{
					"ior":1.4500000476837158
				}
			},
			"name":"red",
			"pbrMetallicRoughness":{
				"baseColorFactor":[
					0.9350796937942505,
					0.37223464250564575,
					0.4993438422679901,
					1
				],
				"metallicFactor":0.8454545736312866,
				"roughnessFactor":0.3386363685131073
			}
		}
	],
	"meshes":[
		{
			"name":"Cylinder.006",
			"primitives":[
				{
					"attributes":{
						"POSITION":0,
						"NORMAL":1
					},
					"indices":2,
					"material":0
				}
			]
		},
		{
			"name":"Cone",
			"primitives":[
				{
					"attributes":{
						"POSITION":3,
						"NORMAL":4
					},
					"indices":5,
					"material":1
				}
			]
		},
		{
			"name":"Cone.001",
			"primitives":[
				{
					"attributes":{
						"POSITION":6,
						"NORMAL":7
					},
					"indices":5,
					"material":1
				}
			]
		},
		{
			"name":"CUBezierCurve.001",
			"primitives":[
				{
					"attributes":{
						"POSITION":8,
						"NORMAL":9
					},
					"indices":10,
					"material":2
				}
			]
		},
		{
			"name":"dog body",
			"primitives":[
				{
					"attributes":{
						"POSITION":11,
						"NORMAL":12
					},
					"indices":13,
					"material":0
				}
			]
		}
	],
	"accessors":[
		{
			"bufferView":0,
			"componentType":5126,
			"count":232,
			"max":[
				3.998445510864258,
				0.17884141206741333,
				1.6258180141448975
			],
			"min":[
				-1.5266706943511963,
				-2.12727689743042,
				-1.2836315631866455
			],
			"type":"VEC3"
		},
		{
			"bufferView":1,
			"componentType":5126,
			"count":232,
			"type":"VEC3"
		},
		{
			"bufferView":2,
			"componentType":5123,
			"count":1182,
			"type":"SCALAR"
		},
		{
			"bufferView":3,
			"componentType":5126,
			"count":48,
			"max":[
				0.5299900770187378,
				0.3884769678115845,
				0.5299900770187378
			],
			"min":[
				-0.529990017414093,
				-1,
				-0.5299900770187378
			],
			"type":"VEC3"
		},
		{
			"bufferView":4,
			"componentType":5126,
			"count":48,
			"type":"VEC3"
		},
		{
			"bufferView":5,
			"componentType":5123,
			"count":276,
			"type":"SCALAR"
		},
		{
			"bufferView":6,
			"componentType":5126,
			"count":48,
			"max":[
				0.5299900770187378,
				0.3884769678115845,
				0.5299900770187378
			],
			"min":[
				-0.529990017414093,
				-1,
				-0.5299900770187378
			],
			"type":"VEC3"
		},
		{
			"bufferView":7,
			"componentType":5126,
			"count":48,
			"type":"VEC3"
		},
		{
			"bufferView":8,
			"componentType":5126,
			"count":91,
			"max":[
				0.08095868676900864,
				0.6392198801040649,
				0.4231022894382477
			],
			"min":[
				-0.08510084450244904,
				0.47047892212867737,
				0.36733725666999817
			],
			"type":"VEC3"
		},
		{
			"bufferView":9,
			"componentType":5126,
			"count":91,
			"type":"VEC3"
		},
		{
			"bufferView":10,
			"componentType":5123,
			"count":444,
			"type":"SCALAR"
		},
		{
			"bufferView":11,
			"componentType":5126,
			"count":1642,
			"max":[
				0.2510468363761902,
				0.9298319816589355,
				0.5276723504066467
			],
			"min":[
				-0.2510468363761902,
				-0.003974407911300659,
				-0.6374552845954895
			],
			"type":"VEC3"
		},
		{
			"bufferView":12,
			"componentType":5126,
			"count":1642,
			"type":"VEC3"
		},
		{
			"bufferView":13,
			"componentType":5123,
			"count":9588,
			"type":"SCALAR"
		},
		{
			"bufferView":14,
			"componentType":5126,
			"count":41,
			"max":[
				1.7083333333333333
			],
			"min":[
				0.041666666666666664
			],
			"type":"SCALAR"
		},
		{
			"bufferView":15,
			"componentType":5126,
			"count":41,
			"type":"VEC3"
		},
		{
			"bufferView":16,
			"componentType":5126,
			"count":41,
			"type":"VEC4"
		},
		{
			"bufferView":17,
			"componentType":5126,
			"count":41,
			"type":"VEC3"
		},
		{
			"bufferView":18,
			"componentType":5126,
			"count":41,
			"type":"VEC3"
		},
		{
			"bufferView":19,
			"componentType":5126,
			"count":41,
			"type":"VEC4"
		},
		{
			"bufferView":20,
			"componentType":5126,
			"count":41,
			"type":"VEC3"
		},
		{
			"bufferView":21,
			"componentType":5126,
			"count":41,
			"type":"VEC3"
		},
		{
			"bufferView":22,
			"componentType":5126,
			"count":41,
			"type":"VEC4"
		},
		{
			"bufferView":23,
			"componentType":5126,
			"count":41,
			"type":"VEC3"
		},
		{
			"bufferView":24,
			"componentType":5126,
			"count":41,
			"type":"VEC3"
		},
		{
			"bufferView":25,
			"componentType":5126,
			"count":41,
			"type":"VEC4"
		},
		{
			"bufferView":26,
			"componentType":5126,
			"count":41,
			"type":"VEC3"
		},
		{
			"bufferView":27,
			"componentType":5126,
			"count":41,
			"type":"VEC3"
		},
		{
			"bufferView":28,
			"componentType":5126,
			"count":41,
			"type":"VEC4"
		},
		{
			"bufferView":29,
			"componentType":5126,
			"count":41,
			"type":"VEC3"
		}
	],
	"bufferViews":[
		{
			"buffer":0,
			"byteLength":2784,
			"byteOffset":0,
			"target":34962
		},
		{
			"buffer":0,
			"byteLength":2784,
			"byteOffset":2784,
			"target":34962
		},
		{
			"buffer":0,
			"byteLength":2364,
			"byteOffset":5568,
			"target":34963
		},
		{
			"buffer":0,
			"byteLength":576,
			"byteOffset":7932,
			"target":34962
		},
		{
			"buffer":0,
			"byteLength":576,
			"byteOffset":8508,
			"target":34962
		},
		{
			"buffer":0,
			"byteLength":552,
			"byteOffset":9084,
			"target":34963
		},
		{
			"buffer":0,
			"byteLength":576,
			"byteOffset":9636,
			"target":34962
		},
		{
			"buffer":0,
			"byteLength":576,
			"byteOffset":10212,
			"target":34962
		},
		{
			"buffer":0,
			"byteLength":1092,
			"byteOffset":10788,
			"target":34962
		},
		{
			"buffer":0,
			"byteLength":1092,
			"byteOffset":11880,
			"target":34962
		},
		{
			"buffer":0,
			"byteLength":888,
			"byteOffset":12972,
			"target":34963
		},
		{
			"buffer":0,
			"byteLength":19704,
			"byteOffset":13860,
			"target":34962
		},
		{
			"buffer":0,
			"byteLength":19704,
			"byteOffset":33564,
			"target":34962
		},
		{
			"buffer":0,
			"byteLength":19176,
			"byteOffset":53268,
			"target":34963
		},
		{
			"buffer":0,
			"byteLength":164,
			"byteOffset":72444
		},
		{
			"buffer":0,
			"byteLength":492,
			"byteOffset":72608
		},
		{
			"buffer":0,
			"byteLength":656,
			"byteOffset":73100
		},
		{
			"buffer":0,
			"byteLength":492,
			"byteOffset":73756
		},
		{
			"buffer":0,
			"byteLength":492,
			"byteOffset":74248
		},
		{
			"buffer":0,
			"byteLength":656,
			"byteOffset":74740
		},
		{
			"buffer":0,
			"byteLength":492,
			"byteOffset":75396
		},
		{
			"buffer":0,
			"byteLength":492,
			"byteOffset":75888
		},
		{
			"buffer":0,
			"byteLength":656,
			"byteOffset":76380
		},
		{
			"buffer":0,
			"byteLength":492,
			"byteOffset":77036
		},
		{
			"buffer":0,
			"byteLength":492,
			"byteOffset":77528
		},
		{
			"buffer":0,
			"byteLength":656,
			"byteOffset":78020
		},
		{
			"buffer":0,
			"byteLength":492,
			"byteOffset":78676
		},
		{
			"buffer":0,
			"byteLength":492,
			"byteOffset":79168
		},
		{
			"buffer":0,
			"byteLength":656,
			"byteOffset":79660
		},
		{
			"buffer":0,
			"byteLength":492,
			"byteOffset":80316
		}
	],
	"buffers":[
		{
			"byteLength":80808,
			"uri":"data:application/octet-stream;base64,"
		}
	]
}
